<?xml version="1.0" encoding="UTF-8" standalone="no"?>
<svg
   width="512"
   height="514"
   fill="#ffffff"
   version="1.1"
   id="svg6"
   xmlns="http://www.w3.org/2000/svg"
   xmlns:svg="http://www.w3.org/2000/svg">
  <defs
     id="defs10" />
  <path
     d="m 475.13668,316.01337 c 10.09855,-37.3178 10.78123,-77.71217 0.0345,-117.743 C 442.69442,77.220349 318.09788,5.3776042 196.88824,37.810102 103.33231,62.848276 39.123307,142.68822 29.636532,233.478 H 68.027156 C 77.159287,159.76452 129.86878,95.395994 206.12687,74.986074 300.37439,49.761767 397.08671,100.66254 430.81375,189.95393 l -37.3621,9.99214 C 376.26004,158.40805 341.61987,127.9527 300.59602,114.98141 l -6.86244,38.86938 c 32.38818,11.94277 58.65872,38.86939 68.2697,74.69761 14.00853,52.21302 -12.07579,105.71152 -59.40351,127.90365 l 10.22275,38.1157 c 62.20516,-25.66757 99.57616,-90.31093 90.73658,-156.94924 l 37.22019,-9.95672 a 186.3495,186.3495 0 0 1 -3.42232,74.61779 z"
     id="path2"
     style="stroke-width:0.886619" />
  <path
     d="M 314.50799,476.1899 C 193.28946,508.6224 68.701809,436.77965 36.216106,315.72963 a 228.35394,228.35394 0 0 1 -7.190485,-42.36262 h 38.364021 c 0.966419,10.55961 2.837154,21.18131 5.683204,31.76752 2.979063,11.09157 6.889046,21.68667 11.623537,31.72321 L 118.911,316.33251 a 149.85628,149.85628 0 0 1 -7.24369,-20.79117 C 90.353071,216.10026 137.55659,134.4427 217.104,113.15498 c 15.07255,-4.0341 30.23372,-5.6034 45.04024,-4.97392 l -6.86244,38.8782 c -9.27404,0.0432 -18.6899,1.25905 -28.07036,3.76816 -58.71184,15.71974 -93.55593,75.98325 -77.8273,134.62418 0.97523,3.60855 2.11008,7.12839 3.40454,10.55071 l 43.75468,-26.25274 -13.18403,-34.9594 41.3164,-42.44243 52.22183,-11.25119 15.11686,18.61019 -24.07167,24.382 -20.99517,6.60531 -15.00156,15.4183 7.3501,20.45423 c 0,0 14.88634,15.81734 14.91294,15.82615 l 21.03059,-5.5945 14.96605,-16.43792 32.68082,-10.34687 9.73501,21.8995 -33.71806,41.34299 -56.50417,17.892 -25.33961,-28.21218 -44.17134,26.50098 c 22.64428,25.78287 56.69038,40.10174 91.98672,37.11387 l 10.22267,38.1157 C 222.42375,411.63515 170.9733,389.83317 139.01067,349.77574 l -34.055,20.42771 c 44.87173,58.95126 122.5307,88.15646 198.57597,67.80865 54.73984,-14.647 97.3418,-51.9559 120.41164,-99.1063 l 37.80545,13.74259 C 434.36106,411.41352 382.09492,458.10287 314.50799,476.1899 Z"
     id="path4"
     style="stroke-width:0.886619" />
</svg>
