<svg class="trash-x" width="24" height="24" stroke-width="0" fill="#fff"><path d="M20 6c1.256.001 1.364 1.845.117 1.993L20 8h-.081L19 19a3 3 0 0 1-2.824 2.995L16 22H8c-1.598 0-2.904-1.249-2.992-2.75l-.005-.167L4.08 8H4c-1.256-.001-1.364-1.845-.117-1.993L4 6ZM9.88 9.942c-1.441-.857-2.921 1.047-1.735 2.232l1.84 1.84-1.84 1.842-.118.134c-1.089 1.408.871 3.136 2.132 1.88L12 16.03l1.841 1.84.134.118c1.408 1.088 3.136-.871 1.88-2.132l-1.84-1.841 1.84-1.841.118-.134c1.089-1.408-.871-3.136-2.132-1.88L12 12l-1.841-1.84-.134-.118ZM14 2a2 2 0 0 1 2 2c-.001 1.256-1.845 1.364-1.993.117L14 4h-4l-.007.117C9.845 5.364 8.001 5.256 8 4a2 2 0 0 1 1.85-1.995L10 2Z"/></svg>